<?xml version="1.0" encoding="utf-8"?>
<svg viewBox="0 0 373.882 459.962" xmlns="http://www.w3.org/2000/svg" xmlns:bx="https://boxy-svg.com">
  <defs>
    <radialGradient id="paint0_radial_1_8" cx="0" cy="0" r="1" gradientUnits="userSpaceOnUse" gradientTransform="translate(-106 489.147) rotate(2.25551) scale(1509.17 523.573)">
      <stop stop-color="#EF98CF" stop-opacity="0.19"/>
      <stop offset="1" stop-color="white" stop-opacity="0"/>
    </radialGradient>
    <radialGradient id="paint1_radial_1_8" cx="0" cy="0" r="1" gradientUnits="userSpaceOnUse" gradientTransform="matrix(-1351.501343, 432.046875, -202.251892, -632.671387, 1009.001884, 20.236897)">
      <stop stop-color="#FF837A"/>
      <stop offset="1" stop-color="white" stop-opacity="0"/>
    </radialGradient>
    <radialGradient id="paint2_radial_1_8" cx="0" cy="0" r="1" gradientUnits="userSpaceOnUse" gradientTransform="translate(189.158 1097.51) rotate(3.44235) scale(781.617 413.282)">
      <stop stop-color="#EF98CF" stop-opacity="0.48"/>
      <stop offset="1" stop-color="white" stop-opacity="0"/>
    </radialGradient>
    <radialGradient id="paint3_radial_1_8" cx="0" cy="0" r="1" gradientUnits="userSpaceOnUse" gradientTransform="translate(765 745.972) rotate(153.977) scale(778.124 495.141)">
      <stop stop-color="#FF837A"/>
      <stop offset="1" stop-color="white" stop-opacity="0"/>
    </radialGradient>
    <clipPath id="clip0_1_8">
      <rect width="1000" height="1330" fill="white"/>
    </clipPath>
    <style bx:fonts="Aclonica">@import url(https://fonts.googleapis.com/css2?family=Aclonica%3Aital%2Cwght%400%2C400&amp;display=swap);</style>
  </defs>
  <g clip-path="url(#clip0_1_8)" transform="matrix(0.370577, 0, 0, 0.343744, 1.717329, 2.67001)" style="">
    <rect width="1007" height="610" fill="#F5F6F7"/>
    <rect width="1007" height="610" fill="url(#paint0_radial_1_8)"/>
    <rect width="1007" height="610" fill="url(#paint1_radial_1_8)" fill-opacity="0.2" x="2.001" y="-24.023"/>
    <rect x="244" y="711" width="521" height="482" fill="#F5F6F7"/>
    <rect x="244" y="711" width="521" height="482" fill="url(#paint2_radial_1_8)"/>
    <rect x="244" y="711" width="521" height="482" fill="url(#paint3_radial_1_8)" fill-opacity="0.5"/>
    <path fill-rule="evenodd" clip-rule="evenodd" d="M0 574H1007V1330H0V574ZM566 974.582V990.692C566 997.302 563.366 1003.64 558.678 1008.32C554.718 1012.26 549.567 1014.75 544.068 1015.43C542.84 1018.9 540.858 1022.1 538.221 1024.77L493.044 1069.92C490.716 1072.27 487.946 1074.13 484.893 1075.4C481.84 1076.68 478.564 1077.33 475.256 1077.33C471.948 1077.33 468.672 1076.68 465.619 1075.4C462.566 1074.13 459.796 1072.27 457.468 1069.92L428.493 1040.96C428.385 1044.11 427.082 1047.11 424.839 1049.35C422.495 1051.69 419.315 1053 416 1053C412.685 1053 409.505 1051.69 407.161 1049.35C404.817 1047.01 403.5 1043.84 403.5 1040.54V1015.62H291C284.37 1015.62 278.011 1012.99 273.322 1008.32C268.634 1003.64 266 997.302 266 990.692V928.385C266 921.775 268.634 915.435 273.322 910.761C278.011 906.087 284.37 903.462 291 903.462H403.5V878.538H328.5C321.87 878.538 315.511 875.913 310.822 871.239C306.134 866.565 303.5 860.225 303.5 853.615V791.308C303.5 784.698 306.134 778.358 310.822 773.684C315.511 769.01 321.87 766.385 328.5 766.385H403.5V741.462C403.5 738.157 404.817 734.987 407.161 732.65C409.505 730.313 412.685 729 416 729C419.315 729 422.495 730.313 424.839 732.65C427.183 734.987 428.5 738.157 428.5 741.462V766.385H503.5C510.13 766.385 516.489 769.01 521.178 773.684C525.866 778.358 528.5 784.698 528.5 791.308V853.615C528.5 860.225 525.866 866.565 521.178 871.239C516.489 875.913 510.13 878.538 503.5 878.538H428.5V903.462H505.907C506.546 897.865 509.04 892.61 513.035 888.558L558.212 843.415C560.54 841.066 563.31 839.201 566.363 837.928C569.416 836.655 572.692 836 576 836C579.308 836 582.584 836.655 585.637 837.928C588.69 839.201 591.46 841.066 593.788 843.415L638.965 888.558C643.637 893.296 646.256 899.681 646.256 906.332C646.256 912.984 643.637 919.369 638.965 924.107L593.788 969.25C591.46 971.599 588.69 973.464 585.637 974.737C582.584 976.01 579.308 976.665 576 976.665C572.692 976.665 569.416 976.01 566.363 974.737C566.242 974.686 566.121 974.635 566 974.582ZM694.532 944.083L739.709 989.226C744.381 993.964 747 1000.35 747 1007C747 1013.65 744.381 1020.04 739.709 1024.77L694.532 1069.92C692.204 1072.27 689.434 1074.13 686.381 1075.4C683.328 1076.68 680.052 1077.33 676.744 1077.33C673.436 1077.33 670.16 1076.68 667.107 1075.4C664.054 1074.13 661.284 1072.27 658.956 1069.92L613.779 1024.77C609.107 1020.04 606.488 1013.65 606.488 1007C606.488 1000.35 609.107 993.964 613.779 989.226L658.956 944.083C661.284 941.733 664.054 939.868 667.107 938.596C670.16 937.323 673.436 936.668 676.744 936.668C680.052 936.668 683.328 937.323 686.381 938.596C689.434 939.868 692.204 941.733 694.532 944.083ZM585.637 1039.26C588.69 1040.54 591.46 1042.4 593.788 1044.75L638.965 1089.89C643.637 1094.63 646.256 1101.02 646.256 1107.67C646.256 1114.32 643.637 1120.7 638.965 1125.44L593.788 1170.58C591.46 1172.93 588.69 1174.8 585.637 1176.07C582.584 1177.34 579.308 1178 576 1178C572.692 1178 569.416 1177.34 566.363 1176.07C563.31 1174.8 560.54 1172.93 558.212 1170.58L513.035 1125.44C508.363 1120.7 505.744 1114.32 505.744 1107.67C505.744 1101.02 508.363 1094.63 513.035 1089.89L558.212 1044.75C560.54 1042.4 563.31 1040.54 566.363 1039.26C569.416 1037.99 572.692 1037.34 576 1037.34C579.308 1037.34 582.584 1037.99 585.637 1039.26Z" fill="#20252B"/>
    <path fill-rule="evenodd" clip-rule="evenodd" d="M566 974.582V928.385C566 921.775 563.366 915.435 558.678 910.761C553.989 906.087 547.63 903.462 541 903.462H505.907C505.799 904.41 505.744 905.368 505.744 906.332C505.744 912.984 508.363 919.369 513.035 924.107L558.212 969.25C560.447 971.506 563.09 973.315 566 974.582ZM544.068 1015.43C545.015 1012.74 545.512 1009.9 545.512 1007C545.512 1000.35 542.893 993.964 538.221 989.226L493.044 944.083C490.716 941.733 487.946 939.868 484.893 938.596C481.84 937.323 478.564 936.668 475.256 936.668C471.948 936.668 468.672 937.323 465.619 938.596C462.566 939.868 459.796 941.733 457.468 944.083L412.291 989.226C407.619 993.964 405 1000.35 405 1007C405 1013.65 407.619 1020.04 412.291 1024.77L428.493 1040.96C428.498 1040.82 428.5 1040.68 428.5 1040.54V1015.62H541C542.031 1015.62 543.055 1015.55 544.068 1015.43Z" fill="#20252B"/>
    <text style="white-space: pre; fill: rgb(51, 51, 51); font-family: Arial, sans-serif; font-size: 56.1px;" x="235.751" y="196.559"> </text>
  </g>
  <text style="fill: rgb(51, 51, 51); font-family: Aclonica; font-size: 58.1828px; font-weight: 700; white-space: pre;" transform="matrix(0.370577, 0, -0.003713, 0.343744, 126.343056, 116.670715)" x="-317.0530090332031" y="-42.999000549316406">As 10 Linguagens <tspan x="-317.0530090332031" dy="1em">​</tspan>de Programação <tspan x="-317.0530090332031" dy="1em">​</tspan>Mais Usadas em 2023</text>
  <text style="white-space: pre; fill: rgb(51, 51, 51); font-family: Arial, sans-serif; font-size: 24.5px;" x="77.988" y="-95.256"> </text>
</svg>